<svg id="Icons" height="512" viewBox="0 0 74 74" width="512" xmlns="http://www.w3.org/2000/svg"><path d="m26 31h-4a1 1 0 0 1 0-2h4a1 1 0 0 1 0 2z"/><path d="m54 72h-34a7.008 7.008 0 0 1 -7-7v-43a1 1 0 0 1 1-1h46a1 1 0 0 1 1 1v43a7.008 7.008 0 0 1 -7 7zm-39-49v42a5.006 5.006 0 0 0 5 5h34a5.006 5.006 0 0 0 5-5v-42z"/><path d="m50 30.5a1 1 0 0 1 -1-1v-13.5a12 12 0 0 0 -24 0v13.5a1 1 0 0 1 -2 0v-13.5a14 14 0 0 1 28 0v13.5a1 1 0 0 1 -1 1z"/><path d="m52 31h-4a1 1 0 0 1 0-2h4a1 1 0 0 1 0 2z"/><path d="m37 62a1 1 0 0 1 -.649-.239c-.421-.359-10.32-8.875-10.758-15.23a7.058 7.058 0 0 1 6.92-7.531 6.614 6.614 0 0 1 4.487 1.785 6.614 6.614 0 0 1 4.487-1.785 7.058 7.058 0 0 1 6.92 7.53c-.438 6.356-10.337 14.87-10.758 15.231a1 1 0 0 1 -.649.239zm-4.487-21a4.924 4.924 0 0 0 -3.568 1.6 5.007 5.007 0 0 0 -1.357 3.8c.293 4.251 6.378 10.548 9.408 13.273 2.172-1.971 9.093-8.6 9.416-13.273a5.006 5.006 0 0 0 -1.357-3.8 4.924 4.924 0 0 0 -3.568-1.6 4.73 4.73 0 0 0 -3.7 1.873 1.036 1.036 0 0 1 -1.57 0 4.73 4.73 0 0 0 -3.704-1.873z"/></svg>